<svg width="32" height="28" viewBox="0 0 32 28" fill="none" xmlns="http://www.w3.org/2000/svg">
<path d="M23.2727 0C20.2182 0 17.5622 1.41024 16 3.77355C14.4378 1.41024 11.7818 0 8.72727 0C6.41348 0.00275885 4.19523 0.945008 2.55914 2.62005C0.923038 4.29509 0.00269471 6.56613 0 8.935C0 13.2834 2.64727 17.8089 7.86909 22.3837C10.2619 24.4711 12.8466 26.3164 15.5869 27.8936C15.7139 27.9634 15.8558 28 16 28C16.1442 28 16.2861 27.9634 16.4131 27.8936C19.1534 26.3164 21.7381 24.4711 24.1309 22.3837C29.3527 17.8089 32 13.2834 32 8.935C31.9973 6.56613 31.077 4.29509 29.4409 2.62005C27.8048 0.945008 25.5865 0.00275885 23.2727 0ZM16 26.0768C13.6131 24.6665 1.74545 17.2326 1.74545 8.935C1.74738 7.03983 2.48358 5.22286 3.79251 3.88278C5.10144 2.54269 6.87617 1.78897 8.72727 1.787C11.6771 1.787 14.1542 3.39977 15.1927 5.99687C15.2585 6.16075 15.3703 6.30092 15.5141 6.39956C15.6578 6.4982 15.827 6.55087 16 6.55087C16.173 6.55087 16.3422 6.4982 16.4859 6.39956C16.6297 6.30092 16.7415 6.16075 16.8073 5.99687C17.8458 3.39977 20.3229 1.787 23.2727 1.787C25.1238 1.78897 26.8986 2.54269 28.2075 3.88278C29.5164 5.22286 30.2526 7.03983 30.2545 8.935C30.2545 17.2326 18.3869 24.6665 16 26.0768Z" fill="#C7C5C2"/>
</svg>
