<svg width="16" height="15" viewBox="0 0 16 15" fill="none" xmlns="http://www.w3.org/2000/svg">
<path fill-rule="evenodd" clip-rule="evenodd" d="M5.20478 0.152519C5.31241 0.235886 5.39306 0.347649 5.43708 0.474433C5.4811 0.601217 5.48662 0.737651 5.45299 0.867408C5.13581 2.07805 5.18416 3.35194 5.59224 4.53655C6.00031 5.72115 6.75082 6.76627 7.7539 7.54674C8.75697 8.32722 9.9701 8.80999 11.248 8.93723C12.5259 9.06447 13.8145 8.8308 14.9594 8.2642C15.082 8.20354 15.22 8.17851 15.3569 8.19212C15.4937 8.20574 15.6236 8.2574 15.7311 8.34095C15.8385 8.42449 15.919 8.53638 15.9628 8.66321C16.0066 8.79005 16.0118 8.92647 15.978 9.05615C15.6431 10.3349 14.9839 11.5115 14.0606 12.4784C13.1373 13.4454 11.9795 14.1717 10.693 14.591C9.4065 15.0103 8.03244 15.1092 6.6965 14.8786C5.36057 14.648 4.10542 14.0953 3.04587 13.271C1.98632 12.4468 1.1562 11.3773 0.631447 10.1605C0.106696 8.94361 -0.0959304 7.61821 0.0421033 6.30551C0.180137 4.99281 0.654424 3.73473 1.42158 2.64636C2.18873 1.55798 3.22425 0.674062 4.43342 0.075459C4.55603 0.0149113 4.69397 -0.0100199 4.83075 0.00364538C4.96754 0.0173106 5.09739 0.0689941 5.20478 0.152519Z" fill="#FFF1C0"/>
</svg>
